<svg width="235" height="204" viewBox="0 0 235 204" fill="none" xmlns="http://www.w3.org/2000/svg">
<path d="M114.99 133.77C114.65 134.28 114.65 134.72 114.86 135.17C115.9 137.42 116.01 139.64 114.7 141.83C114.66 141.89 114.64 141.97 114.61 142.04C114.61 142.06 114.61 142.08 114.63 142.14C115 142.14 115.38 142.16 115.76 142.14C118.3 142.02 120.56 142.81 122.65 144.21C123.85 145.01 124.67 146.12 125.23 147.43C125.28 147.55 125.33 147.68 125.36 147.82C125.52 148.56 125.07 149.06 124.33 148.93C123.53 148.79 122.75 148.54 121.94 148.44C120.1 148.22 118.25 148 116.39 147.9C114.73 147.81 113.06 147.9 111.4 147.88C108.82 147.86 106.25 147.82 103.67 147.79C102.39 147.77 101.11 147.76 99.8299 147.73C99.4299 147.73 99.0099 147.71 98.6199 147.62C97.7499 147.43 97.3499 146.81 97.5599 145.94C97.7799 144.99 98.2799 144.18 98.9999 143.53C99.7599 142.85 100.58 142.22 101.38 141.57C101.51 141.46 101.63 141.35 101.75 141.25C99.4099 139.41 96.8599 138.24 93.8399 138.35C92.2199 138.41 90.7699 138.86 89.4999 139.91C88.3099 140.9 87.0499 141.8 85.8099 142.74C84.6499 143.61 83.3499 144.21 81.9899 144.67C79.4199 145.55 76.8099 146.31 74.0999 146.57C69.4799 147.01 65.4199 145.62 61.9199 142.58C59.2899 140.3 57.6499 137.43 57.0799 134C56.6999 131.69 57.0999 129.41 57.7699 127.18C57.8399 126.95 57.8399 126.69 57.8999 126.45C57.9499 126.23 58.0199 126.01 58.1299 125.81C58.6099 124.93 59.1599 124.08 59.5999 123.18C60.9999 120.31 63.0599 118.01 65.5999 116.13C67.3799 114.81 69.4199 114.39 71.5899 114.52C71.9099 114.54 72.2499 114.62 72.5399 114.75C73.1099 114.99 73.2999 115.52 73.0699 116.1C72.6899 117.04 72.0399 117.73 71.0499 117.94C69.3699 118.3 67.9299 119.18 66.4699 120.01C64.5599 121.09 63.1699 122.67 62.0499 124.52C60.7499 126.65 60.0499 128.96 60.0699 131.47C60.0999 135.23 61.4699 138.39 64.2399 140.96C65.8299 142.44 67.5799 143.51 69.7799 143.78C71.6299 144 73.4499 143.95 75.2599 143.53C77.3899 143.04 79.4099 142.34 81.2699 141.13C82.8599 140.09 84.5099 139.17 85.9999 137.98C87.3799 136.89 88.8499 135.91 90.3299 134.96C91.0899 134.47 91.9599 134.17 92.7699 133.77C92.9099 133.7 93.1499 133.58 93.1499 133.5C93.1399 133.27 93.0799 132.91 92.9299 132.83C92.3599 132.55 92.1299 132 91.7999 131.53C91.1399 130.58 90.4699 129.63 89.8499 128.64C89.2899 127.76 88.7599 126.85 88.2899 125.93C87.7699 124.91 87.1399 123.99 86.2699 123.27C84.8899 122.12 83.7099 120.8 82.6099 119.4C81.2099 117.62 79.4299 116.23 77.6499 114.86C73.9399 111.99 70.0299 109.41 66.0199 106.97C65.8399 106.86 65.6599 106.74 65.4599 106.66C64.9399 106.46 64.4499 106.24 64.4899 105.54C64.4899 105.42 64.3299 105.29 64.2399 105.16C63.5799 104.15 63.9999 103.12 65.1699 102.84C65.7799 102.7 66.3699 102.8 66.9399 103.01C70.6699 104.35 74.3099 105.86 77.3699 108.5C78.9699 109.88 80.6199 111.2 82.2499 112.54C82.3899 112.66 82.5399 112.77 82.7699 112.82C82.5199 112.39 82.2899 111.95 82.0299 111.54C78.8699 106.62 75.8299 101.61 72.4299 96.85C71.1099 95.01 69.6399 93.28 68.2399 91.5C66.2399 88.97 64.5199 86.26 63.1099 83.36C62.8499 82.82 62.6099 82.26 62.4599 81.69C62.2299 80.81 62.6899 80.11 63.5899 80.02C64.1699 79.96 64.7899 80.03 65.3599 80.19C66.4199 80.49 67.3099 81.12 68.1799 81.78C70.8299 83.8 73.1299 86.18 75.2199 88.76C76.3799 90.19 77.4199 91.71 78.5199 93.18C78.5999 93.29 78.6699 93.39 78.8399 93.48C78.8199 93.35 78.8199 93.22 78.7899 93.09C77.9899 89.55 76.7499 86.14 75.4499 82.76C73.1699 76.79 70.8599 70.83 68.5699 64.87C68.5399 64.78 68.4999 64.69 68.4699 64.6C68.3399 64.21 68.2899 63.83 68.6499 63.53C68.9999 63.24 69.4099 63.31 69.7299 63.55C70.4499 64.07 71.1799 64.59 71.8199 65.2C74.5199 67.76 76.7199 70.73 78.6599 73.9C80.9599 77.66 82.7199 81.69 84.4599 85.73C84.6899 86.26 84.9199 86.78 85.1499 87.31C85.1899 87.31 85.2199 87.29 85.2599 87.29C85.2399 86.86 85.1799 86.43 85.1999 86C85.2399 84.43 85.2299 82.86 85.3799 81.3C85.6599 78.32 85.6199 75.34 85.6699 72.36C85.7399 68 86.0099 63.65 86.7499 59.34C87.7999 53.27 90.2699 47.84 94.0499 43.02C95.3699 41.33 96.8599 39.77 98.2699 38.15C98.4499 37.95 98.6599 37.77 98.8899 37.63C99.1699 37.45 99.4799 37.42 99.7499 37.67C100.01 37.9 100.05 38.21 99.9099 38.52C99.8299 38.7 99.7299 38.86 99.6199 39.02C97.1099 42.87 95.6799 47.13 95.0399 51.65C94.7299 53.87 94.6299 56.12 94.4799 58.36C94.2399 61.82 93.9599 65.28 93.8499 68.74C93.7799 70.99 93.4899 73.23 93.6899 75.5C93.9599 78.54 93.9599 81.61 94.2499 84.65C94.5099 87.38 94.9999 90.1 95.3899 92.82C95.8399 95.97 96.3999 99.09 97.3599 102.13C98.4499 105.59 99.5999 109.02 101.32 112.23C102.01 113.53 102.82 114.76 103.58 116.02C103.7 116.22 103.84 116.41 103.93 116.62C105.16 119.43 107.15 121.72 109.1 124.02C110.01 125.09 111.12 125.99 112.17 126.94C112.99 127.68 113.89 128.33 114.69 129.09C117.08 131.34 119.79 133.17 122.43 135.09C123.58 135.93 124.85 136.38 126.28 136.57C128.5 136.87 130.68 136.72 132.87 136.34C133.33 136.26 133.79 136.18 134.25 136.16C134.66 136.14 134.81 135.93 134.9 135.57C135.25 134.25 135.29 132.89 135.36 131.54C135.49 128.87 135.46 126.2 135.22 123.53C135.12 122.39 135.24 121.21 135.38 120.06C135.55 118.7 136.29 117.69 137.58 117.14C138.92 116.57 139.79 115.56 140.39 114.26C140.67 113.64 141 113.05 141.31 112.45C141.76 111.57 141.88 110.65 141.63 109.69C141.43 108.92 141.31 108.12 141 107.4C140.52 106.32 141.24 105.66 142.04 105.41C142.62 105.23 143.26 105.16 143.87 105.15C144.78 105.13 145.69 105.19 146.6 105.22C148.32 105.27 150.05 105.35 151.77 105.36C154.37 105.38 156.96 105.36 159.55 105.62C160.2 105.68 160.87 105.66 161.52 105.68C161.77 105.68 162.03 105.68 162.27 105.73C163.05 105.88 163.41 106.55 163.06 107.26C162.85 107.69 162.57 108.1 162.24 108.45C161.35 109.42 160.55 110.46 159.85 111.59C159.04 112.9 157.87 113.86 156.64 114.75C156.23 115.04 155.83 115.34 155.4 115.65C155.95 116.89 156.55 118.05 157.31 119.13C157.6 119.54 157.9 119.95 158.16 120.38C158.76 121.38 158.49 122.12 157.33 122.36C156.58 122.52 155.8 122.49 155.03 122.54C154.9 122.54 154.77 122.54 154.59 122.52C154.64 122.71 154.67 122.85 154.72 122.99C155.33 124.75 156.04 126.46 156.96 128.09C157.17 128.46 157.36 128.84 157.52 129.24C157.88 130.17 157.36 130.82 156.39 130.63C155.71 130.5 155.05 130.28 154.33 130.09C154.34 130.23 154.33 130.36 154.36 130.48C154.9 132.17 155.6 133.78 156.81 135.12C157.14 135.48 157.39 135.87 157.16 136.37C156.91 136.88 156.44 136.97 155.93 136.94C155.8 136.94 155.67 136.92 155.45 136.91C155.58 137.18 155.68 137.38 155.78 137.58C156.02 138.11 156.29 138.62 156.5 139.17C156.75 139.83 156.75 140.49 156.34 141.12C156.22 141.3 156.2 141.54 156.1 141.83C156.38 141.81 156.56 141.8 156.75 141.78C158.62 141.64 160.42 141.85 162.09 142.78C162.63 143.08 163.04 143.5 163.36 144.02C164.02 145.09 164.32 146.25 164.39 147.49C164.42 147.91 164.5 148.34 164.53 148.76C164.59 149.63 164.02 150.03 163.23 149.67C162.93 149.54 162.64 149.38 162.34 149.23C160 148.05 157.49 147.57 154.91 147.59C149.47 147.62 144.03 147.75 138.58 147.88C135.56 147.95 132.54 148.1 129.52 148.24C128.19 148.3 127.3 147.77 126.67 146.58C125.71 144.75 124.32 143.32 122.4 142.47C121.6 142.12 120.81 141.76 120 141.44C119.29 141.17 118.54 141.07 117.77 141.18C116.93 141.31 116.46 140.77 116.69 139.92C116.81 139.45 116.96 138.99 117.11 138.53C117.6 137.03 117.18 135.79 116.07 134.74C115.74 134.42 115.36 134.15 114.96 133.83L114.99 133.77ZM162.91 147.76C162.87 147.34 162.85 147 162.8 146.66C162.58 145.29 162.05 144.16 160.62 143.65C159.47 143.24 159.05 143.3 158.22 144.2C158.18 144.24 158.14 144.29 158.11 144.33C157.52 145.06 157.96 146.28 158.88 146.44C160.07 146.65 161.21 147.01 162.3 147.51C162.47 147.59 162.65 147.65 162.91 147.75V147.76ZM115.79 146.25C118.34 146.52 120.81 146.77 123.38 147.04C123.07 146.67 122.83 146.31 122.52 146.03C121.43 145.04 120.12 144.4 118.72 143.97C118.55 143.92 118.33 143.92 118.15 143.97C116.96 144.31 116.26 145.15 115.78 146.25H115.79ZM150.85 109.42C150.49 108.52 149.92 107.79 149.05 107.33C148.93 108.37 148.81 109.34 148.7 110.3C149.48 110.29 150.3 109.97 150.85 109.42ZM145.87 110.21C146.14 109.22 146.38 108.34 146.62 107.45C146.6 107.42 146.57 107.4 146.55 107.37C145.87 107.85 145.19 108.33 144.45 108.85C144.96 109.33 145.4 109.75 145.87 110.2V110.21Z" fill="white"/>
<path d="M97.57 97.65C97.29 95.89 96.99 94.14 96.73 92.38C96.33 89.66 95.91 86.94 95.58 84.21C95.4 82.73 95.41 81.23 95.33 79.75C95.23 77.85 95.09 75.96 95.02 74.06C94.99 73.17 95.07 72.28 95.12 71.4C95.16 70.72 95.27 70.05 95.29 69.37C95.31 68.88 95.45 68.5 95.79 68.12C98.11 65.55 100.71 63.29 103.46 61.21C104.34 60.55 105.24 59.91 106.17 59.31C107.08 58.71 108.07 58.3 109.16 58.1C109.76 57.99 110.33 57.7 110.92 57.52C113.34 56.76 115.75 55.98 118.19 55.27C118.77 55.1 119.41 55.16 120.02 55.11C121.18 55.01 122.33 54.91 123.49 54.79C127.86 54.36 132.24 54.13 136.59 54.77C139.54 55.2 142.45 55.85 145.37 56.44C147.15 56.8 148.94 57.21 150.6 57.97C151.79 58.52 152.95 59.16 154.1 59.79C154.8 60.17 154.91 60.53 154.7 61.29C154.52 61.92 154.35 62.56 154.12 63.18C153.33 65.31 153.05 67.53 152.93 69.79C152.87 70.95 152.73 72.11 152.6 73.26C152.46 74.45 152.07 75.56 151.55 76.63C151.11 77.53 150.67 78.44 150.24 79.35C149.91 80.04 149.44 80.2 148.79 79.8C148.48 79.61 148.2 79.36 147.91 79.14C146.44 78 144.99 76.83 143.5 75.72C140.91 73.79 137.94 72.6 134.93 71.51C129.8 69.65 124.53 68.33 119.13 67.55C118.06 67.4 116.98 67.23 115.91 67.11C112.59 66.75 109.6 67.54 107.09 69.82C106.12 70.7 105.22 71.67 104.29 72.6C104.18 72.71 104.08 72.84 104.02 72.97C102.75 75.6 101.31 78.17 100.25 80.89C98.33 85.84 97.29 90.99 97.63 96.35C97.66 96.79 97.69 97.23 97.73 97.68C97.68 97.68 97.63 97.68 97.58 97.68L97.57 97.65Z" fill="white"/>
<path d="M132.53 105.13C134.27 105.13 136.01 105.26 137.75 105.26C138.1 105.26 138.44 105.29 138.79 105.33C139.14 105.36 139.37 105.57 139.44 105.91C139.69 107.1 139.98 108.29 140.15 109.49C140.23 110.01 140.13 110.58 139.99 111.09C139.65 112.42 138.98 113.6 138.16 114.69C138.02 114.87 137.85 115.03 137.67 115.18C136.61 116.06 136.1 116.11 134.88 115.47C133.2 114.59 131.53 113.7 130 112.55C128.22 111.2 126.15 110.82 123.97 110.89C123.53 110.9 123.08 110.96 122.64 110.93C121.84 110.87 121.38 110.41 121.26 109.61C121.04 108.11 121.66 106.96 123.07 106.24C124.08 105.73 125.17 105.54 126.27 105.46C128.35 105.32 130.44 105.23 132.53 105.13C132.53 105.17 132.53 105.09 132.53 105.13Z" fill="white"/>
</svg>
